REM DIRINDEX 1\2\6,1\2\7,1\2\8,1\2\9,1\3\10,1\3\11,1\4\12,1\4\13,1\4\14,1\5\15,1\5\16,1\5\17
REM DIRNAME folder01,folder02,folder03,folder04,folder05,folder06,folder07,folder08,folder09,folder10,folder11,folder12,folder13,folder14,folder15,folder16,folder17
TITLE ""
FILE "1900_2_sec12_1133_1148.mp3" MP3
  TRACK 01 AUDIO
    TITLE "0:"
    INDEX 01 00:00:00
  TRACK 02 AUDIO
    TITLE "13:cjc020_4398"
    INDEX 01 00:00:19
  TRACK 03 AUDIO
    TITLE "0:"
    INDEX 01 00:01:34
  TRACK 04 AUDIO
    TITLE "14:cjc020_4399"
    INDEX 01 00:01:36
  TRACK 05 AUDIO
    TITLE "0:"
    INDEX 01 00:04:23
  TRACK 06 AUDIO
    TITLE "13:cjc020_4400"
    INDEX 01 00:05:05
  TRACK 07 AUDIO
    TITLE "0:"
    INDEX 01 00:06:41
  TRACK 08 AUDIO
    TITLE "14:cjc020_4401"
    INDEX 01 00:06:45
  TRACK 09 AUDIO
    TITLE "0:"
    INDEX 01 00:10:59
  TRACK 10 AUDIO
    TITLE "13:cjc020_4402"
    INDEX 01 00:11:40
  TRACK 11 AUDIO
    TITLE "0:"
    INDEX 01 00:12:63
  TRACK 12 AUDIO
    TITLE "14:cjc020_4403"
    INDEX 01 00:12:67
  TRACK 13 AUDIO
    TITLE "0:"
    INDEX 01 00:16:61
  TRACK 14 AUDIO
    TITLE "13:cjc020_4404"
    INDEX 01 00:17:45
  TRACK 15 AUDIO
    TITLE "0:"
    INDEX 01 00:18:54
  TRACK 16 AUDIO
    TITLE "14:cjc020_4405"
    INDEX 01 00:18:56
  TRACK 17 AUDIO
    TITLE "0:"
    INDEX 01 00:22:56
  TRACK 18 AUDIO
    TITLE "13:cjc020_4406"
    INDEX 01 00:23:38
  TRACK 19 AUDIO
    TITLE "0:"
    INDEX 01 00:24:47
  TRACK 20 AUDIO
    TITLE "14:cjc020_4407"
    INDEX 01 00:24:49
  TRACK 21 AUDIO
    TITLE "0:"
    INDEX 01 00:26:56
  TRACK 22 AUDIO
    TITLE "13:cjc020_4408"
    INDEX 01 00:27:39
  TRACK 23 AUDIO
    TITLE "0:"
    INDEX 01 00:28:55
  TRACK 24 AUDIO
    TITLE "14:cjc020_4409"
    INDEX 01 00:28:59
  TRACK 25 AUDIO
    TITLE "0:"
    INDEX 01 00:31:33
  TRACK 26 AUDIO
    TITLE "13:cjc020_4410"
    INDEX 01 00:32:15
  TRACK 27 AUDIO
    TITLE "0:"
    INDEX 01 00:33:30
  TRACK 28 AUDIO
    TITLE "14:cjc020_4411"
    INDEX 01 00:33:32
  TRACK 29 AUDIO
    TITLE "0:"
    INDEX 01 00:35:17
  TRACK 30 AUDIO
    TITLE "13:cjc020_4412"
    INDEX 01 00:35:74
  TRACK 31 AUDIO
    TITLE "0:"
    INDEX 01 00:37:12
  TRACK 32 AUDIO
    TITLE "14:cjc020_4413"
    INDEX 01 00:37:18
  TRACK 33 AUDIO
    TITLE "0:"
    INDEX 01 00:41:40
  TRACK 34 AUDIO
    TITLE "12:cjc020_4414"
    INDEX 01 00:43:13
  TRACK 35 AUDIO
    TITLE "0:"
    INDEX 01 00:44:38
  TRACK 36 AUDIO
    TITLE "13:cjc020_4415"
    INDEX 01 00:45:39
  TRACK 37 AUDIO
    TITLE "0:"
    INDEX 01 00:46:64
  TRACK 38 AUDIO
    TITLE "14:cjc020_4416"
    INDEX 01 00:46:72
  TRACK 39 AUDIO
    TITLE "0:"
    INDEX 01 00:49:20
  TRACK 40 AUDIO
    TITLE "13:cjc020_4417"
    INDEX 01 00:49:72
  TRACK 41 AUDIO
    TITLE "0:"
    INDEX 01 00:51:16
  TRACK 42 AUDIO
    TITLE "14:cjc020_4418"
    INDEX 01 00:51:20
  TRACK 43 AUDIO
    TITLE "0:"
    INDEX 01 00:54:70
  TRACK 44 AUDIO
    TITLE "13:cjc020_4419"
    INDEX 01 00:55:51
  TRACK 45 AUDIO
    TITLE "0:"
    INDEX 01 00:56:72
  TRACK 46 AUDIO
    TITLE "14:cjc020_4420"
    INDEX 01 00:56:74
  TRACK 47 AUDIO
    TITLE "0:"
    INDEX 01 00:59:32
  TRACK 48 AUDIO
    TITLE "13:cjc020_4421"
    INDEX 01 01:00:25
  TRACK 49 AUDIO
    TITLE "0:"
    INDEX 01 01:01:70
  TRACK 50 AUDIO
    TITLE "14:cjc020_4422"
    INDEX 01 01:02:03
  TRACK 51 AUDIO
    TITLE "0:"
    INDEX 01 01:03:29
  TRACK 52 AUDIO
    TITLE "13:cjc020_4423"
    INDEX 01 01:04:09
  TRACK 53 AUDIO
    TITLE "0:"
    INDEX 01 01:05:13
  TRACK 54 AUDIO
    TITLE "14:cjc020_4424"
    INDEX 01 01:05:22
  TRACK 55 AUDIO
    TITLE "0:"
    INDEX 01 01:06:28
  TRACK 56 AUDIO
    TITLE "13:cjc020_4425"
    INDEX 01 01:07:10
  TRACK 57 AUDIO
    TITLE "0:"
    INDEX 01 01:08:13
  TRACK 58 AUDIO
    TITLE "14:cjc020_4426"
    INDEX 01 01:08:17
  TRACK 59 AUDIO
    TITLE "0:"
    INDEX 01 01:10:26
  TRACK 60 AUDIO
    TITLE "13:cjc020_4427"
    INDEX 01 01:11:03
  TRACK 61 AUDIO
    TITLE "0:"
    INDEX 01 01:12:30
  TRACK 62 AUDIO
    TITLE "14:cjc020_4428"
    INDEX 01 01:12:34
  TRACK 63 AUDIO
    TITLE "0:"
    INDEX 01 01:15:39
  TRACK 64 AUDIO
    TITLE "13:cjc020_4429"
    INDEX 01 01:16:20
  TRACK 65 AUDIO
    TITLE "0:"
    INDEX 01 01:17:22
  TRACK 66 AUDIO
    TITLE "14:cjc020_4430"
    INDEX 01 01:17:32
  TRACK 67 AUDIO
    TITLE "0:"
    INDEX 01 01:20:71
